# xmcd CD database file generated by OrangeCD 5.2
#
# Track frame offsets:
#	150
#	31058
#	57085
#	74258
#	88207
#	117009
#	137100
#	160500
#	189000
#	218177
#	245924
#
# Disc length: 3421 seconds
#
# Revision: 0
# Processed by: cddbd v1.5.1PL0 Copyright (c) Steve Scherf et al.
# Submitted via: OrangeCD 5.2
#
DISCID=910d5b0b
DTITLE=Haynes, Warren - Stanhope House, Stanhope, NJ 6/29/1997
DYEAR=1997
DGENRE=Blues
TTITLE0=Painted Silver Light
TTITLE1=Angel City
TTITLE2=Little Wing
TTITLE3=Loaded Dice
TTITLE4=Gambler's Roll
TTITLE5=I've Been Loving You Too Long
TTITLE6=In The Presence Of The Lord
TTITLE7=I Shall Be Released
TTITLE8=Soulshine
TTITLE9=Goin' Out West
TTITLE10=Grinnin' In Your Face
EXTD=
EXTT0=
EXTT1=
EXTT2=
EXTT3=
EXTT4=
EXTT5=
EXTT6=
EXTT7=
EXTT8=
EXTT9=
EXTT10=
PLAYORDER=
